<mxfile host="app.diagrams.net" agent="Mozilla/5.0 (Windows NT 10.0; Win64; x64) AppleWebKit/537.36 (KHTML, like Gecko) Chrome/133.0.0.0 Safari/537.36" version="26.0.16">
  <diagram name="Page-1" id="pw0mbFrSKtVtHFD9CcJ6">
    <mxGraphModel dx="1050" dy="557" grid="1" gridSize="10" guides="1" tooltips="1" connect="1" arrows="1" fold="1" page="1" pageScale="1" pageWidth="850" pageHeight="1100" math="0" shadow="0">
      <root>
        <mxCell id="0" />
        <mxCell id="1" parent="0" />
        <mxCell id="7WqOnEUoiAn3P0yyxOXh-1" value="" style="whiteSpace=wrap;html=1;aspect=fixed;" vertex="1" parent="1">
          <mxGeometry x="130" y="90" width="230" height="230" as="geometry" />
        </mxCell>
        <mxCell id="7WqOnEUoiAn3P0yyxOXh-2" value="" style="whiteSpace=wrap;html=1;aspect=fixed;" vertex="1" parent="1">
          <mxGeometry x="480" y="80" width="240" height="240" as="geometry" />
        </mxCell>
        <mxCell id="7WqOnEUoiAn3P0yyxOXh-3" value="" style="whiteSpace=wrap;html=1;aspect=fixed;" vertex="1" parent="1">
          <mxGeometry x="305" y="360" width="240" height="240" as="geometry" />
        </mxCell>
        <mxCell id="7WqOnEUoiAn3P0yyxOXh-4" value="" style="rounded=0;whiteSpace=wrap;html=1;" vertex="1" parent="1">
          <mxGeometry x="140" y="100" width="210" height="30" as="geometry" />
        </mxCell>
        <mxCell id="7WqOnEUoiAn3P0yyxOXh-5" value="" style="rounded=0;whiteSpace=wrap;html=1;" vertex="1" parent="1">
          <mxGeometry x="495" y="90" width="210" height="30" as="geometry" />
        </mxCell>
        <mxCell id="7WqOnEUoiAn3P0yyxOXh-6" value="" style="rounded=0;whiteSpace=wrap;html=1;" vertex="1" parent="1">
          <mxGeometry x="310" y="370" width="230" height="30" as="geometry" />
        </mxCell>
        <mxCell id="7WqOnEUoiAn3P0yyxOXh-7" value="" style="rounded=0;whiteSpace=wrap;html=1;" vertex="1" parent="1">
          <mxGeometry x="140" y="280" width="210" height="30" as="geometry" />
        </mxCell>
        <mxCell id="7WqOnEUoiAn3P0yyxOXh-8" value="" style="rounded=0;whiteSpace=wrap;html=1;" vertex="1" parent="1">
          <mxGeometry x="495" y="280" width="210" height="30" as="geometry" />
        </mxCell>
        <mxCell id="7WqOnEUoiAn3P0yyxOXh-9" value="" style="rounded=0;whiteSpace=wrap;html=1;" vertex="1" parent="1">
          <mxGeometry x="310" y="560" width="230" height="30" as="geometry" />
        </mxCell>
      </root>
    </mxGraphModel>
  </diagram>
</mxfile>
